# xmcd CD database file
#
# Track frame offsets:
#	150
#	2043
#	18785
#	40445
#	69138
#	89575
#	108453
#	131050
#	143913
#	162713
#
# Disc length: 2921 seconds
#
# Revision: 3
# Processed by: cddbd v1.5.2PL0 Copyright (c) Steve Scherf et al.
# Submitted via: CDex 1.51
#
DISCID=850b670a
DTITLE=Louis Armstrong - Satchmo The Great
DYEAR=1994
DGENRE=Jazz
TTITLE0=Introduction
TTITLE1=When It's Sleepy Time Down South
TTITLE2=(Back Home Again) In Indiana
TTITLE3=Paris Interview
TTITLE4=Flee As A Bird To The Mountain/Oh Didn't He Ramble
TTITLE5=Mack The Knife
TTITLE6=Mahogany Hall Stomp
TTITLE7=All For You, Louis (Sly Mongoose)
TTITLE8=(What Did I Do To Be So) Black And Blue
TTITLE9=St. Louis Blues (Concerto Grosso)
EXTD=YEAR: 1994
EXTT0=
EXTT1=
EXTT2=
EXTT3=
EXTT4=
EXTT5=
EXTT6=
EXTT7=
EXTT8=
EXTT9=
PLAYORDER=
